<svg width="49" height="48" viewBox="0 0 49 48" fill="none" xmlns="http://www.w3.org/2000/svg">
<g clip-path="url(#clip0)">
<g clip-path="url(#clip1)">
<path d="M47 36H5V12C5 10.3432 6.34325 9 8 9H44C45.6567 9 47 10.3432 47 12V36Z" fill="#353744"/>
<g clip-path="url(#clip2)">
<path d="M47 36H5V37.5C5 39.1568 6.34325 40.5 8 40.5H44C45.6567 40.5 47 39.1568 47 37.5V36Z" fill="#808080"/>
</g>
<path d="M44 36H5V12C5 10.3432 6.34325 9 8 9H41C42.6567 9 44 10.3432 44 12V36Z" fill="#55525B"/>
<g clip-path="url(#clip3)">
<path d="M44 36H5V37.5C5 39.1568 6.34325 40.5 8 40.5H41C42.6567 40.5 44 39.1568 44 37.5V36Z" fill="#DBDEE3"/>
</g>
<path d="M39.875 12H9.125C8.504 12 8 12.504 8 13.125V31.875C8 32.496 8.504 33 9.125 33H39.875C40.496 33 41 32.496 41 31.875V13.125C41 12.504 40.496 12 39.875 12Z" fill="#FBBE18"/>
<g clip-path="url(#clip4)">
<path d="M12.5 18H29C29.8288 18 30.5 17.3287 30.5 16.5C30.5 15.6712 29.8288 15 29 15H12.5C11.6712 15 11 15.6712 11 16.5C11 17.3287 11.6712 18 12.5 18Z" fill="#F68820"/>
</g>
<g clip-path="url(#clip5)">
<path d="M12.5 24H29C29.8288 24 30.5 23.3288 30.5 22.5C30.5 21.6712 29.8288 21 29 21H12.5C11.6712 21 11 21.6712 11 22.5C11 23.3288 11.6712 24 12.5 24Z" fill="#F68820"/>
</g>
<g clip-path="url(#clip6)">
<path d="M12.5 30H29C29.8288 30 30.5 29.3288 30.5 28.5C30.5 27.6712 29.8288 27 29 27H12.5C11.6712 27 11 27.6712 11 28.5C11 29.3288 11.6712 30 12.5 30Z" fill="#F68820"/>
</g>
<g clip-path="url(#clip7)">
<path d="M31.625 43.5H28.625V40.5H31.625V43.5Z" fill="#808080"/>
</g>
<g clip-path="url(#clip8)">
<path d="M21.5 40.5H28.625V43.5H21.5V40.5Z" fill="#B3B4B6"/>
</g>
<g clip-path="url(#clip9)">
<path d="M34.625 43.5H15.875C14.2182 43.5 12.875 44.8432 12.875 46.5H37.625C37.625 44.8432 36.2817 43.5 34.625 43.5Z" fill="#DBDEE3"/>
</g>
<g clip-path="url(#clip10)">
<path d="M34.625 43.5H31.625C29.9683 43.5 28.625 44.8432 28.625 46.5H37.625C37.625 44.8432 36.2818 43.5 34.625 43.5Z" fill="#808080"/>
</g>
<g clip-path="url(#clip11)">
<path d="M13.25 1.5H11C6.02975 1.5 2 5.52975 2 10.5C2 15.4703 6.02975 19.5 11 19.5H13.25C18.2202 19.5 22.25 15.4703 22.25 10.5C22.25 5.52975 18.2202 1.5 13.25 1.5Z" fill="#5C76B2"/>
</g>
<g clip-path="url(#clip12)">
<path d="M11 19.5C15.9706 19.5 20 15.4706 20 10.5C20 5.52944 15.9706 1.5 11 1.5C6.02944 1.5 2 5.52944 2 10.5C2 15.4706 6.02944 19.5 11 19.5Z" fill="#6FA4D8"/>
</g>
<g clip-path="url(#clip13)">
<path d="M11 18C15.1421 18 18.5 14.6421 18.5 10.5C18.5 6.35786 15.1421 3 11 3C6.85786 3 3.5 6.35786 3.5 10.5C3.5 14.6421 6.85786 18 11 18Z" fill="#55525B"/>
</g>
<g clip-path="url(#clip14)">
<path d="M11 10.875C10.793 10.875 10.625 10.707 10.625 10.5V4.5C10.625 4.293 10.793 4.125 11 4.125C11.207 4.125 11.375 4.293 11.375 4.5V10.5C11.375 10.707 11.207 10.875 11 10.875Z" fill="#6FA4D8"/>
</g>
<g clip-path="url(#clip15)">
<path d="M7.81855 14.0572C7.72255 14.0572 7.62655 14.0204 7.55305 13.9477C7.4068 13.8014 7.4068 13.5637 7.55305 13.4174L10.7345 10.2352C10.8808 10.0889 11.1185 10.0889 11.2648 10.2352C11.411 10.3814 11.411 10.6192 11.2648 10.7654L8.0833 13.9477C8.01055 14.0204 7.91455 14.0572 7.81855 14.0572Z" fill="#6FA4D8"/>
</g>
<g clip-path="url(#clip16)">
<path d="M11 12C11.8284 12 12.5 11.3284 12.5 10.5C12.5 9.67157 11.8284 9 11 9C10.1716 9 9.5 9.67157 9.5 10.5C9.5 11.3284 10.1716 12 11 12Z" fill="#F68820"/>
</g>
<g clip-path="url(#clip17)">
<path d="M11 11.25C11.4142 11.25 11.75 10.9142 11.75 10.5C11.75 10.0858 11.4142 9.75 11 9.75C10.5858 9.75 10.25 10.0858 10.25 10.5C10.25 10.9142 10.5858 11.25 11 11.25Z" fill="#DBDEE3"/>
</g>
<g clip-path="url(#clip18)">
<path d="M5.75 10.875H5C4.793 10.875 4.625 10.707 4.625 10.5C4.625 10.293 4.793 10.125 5 10.125H5.75C5.957 10.125 6.125 10.293 6.125 10.5C6.125 10.707 5.957 10.875 5.75 10.875Z" fill="#F68820"/>
</g>
<g clip-path="url(#clip19)">
<path d="M11 16.875C10.793 16.875 10.625 16.707 10.625 16.5V15.75C10.625 15.543 10.793 15.375 11 15.375C11.207 15.375 11.375 15.543 11.375 15.75V16.5C11.375 16.707 11.207 16.875 11 16.875Z" fill="#F68820"/>
</g>
<g clip-path="url(#clip20)">
<path d="M17 10.875H16.25C16.043 10.875 15.875 10.707 15.875 10.5C15.875 10.293 16.043 10.125 16.25 10.125H17C17.207 10.125 17.375 10.293 17.375 10.5C17.375 10.707 17.207 10.875 17 10.875Z" fill="#F68820"/>
</g>
<g clip-path="url(#clip21)">
<path d="M35.75 30C34.9212 30 34.25 29.3288 34.25 28.5C34.25 27.6712 34.9212 27 35.75 27C36.5788 27 37.25 27.6712 37.25 28.5C37.25 29.3288 36.5788 30 35.75 30Z" fill="#F68820"/>
</g>
<g clip-path="url(#clip22)">
<path d="M35.188 15.5625L35.7505 16.125L37.438 14.4375C37.7485 14.127 38.2525 14.127 38.563 14.4375C38.8735 14.748 38.8735 15.252 38.563 15.5625L36.313 17.8125C36.0025 18.123 35.4985 18.123 35.188 17.8125L34.063 16.6875C33.7525 16.377 33.7525 15.873 34.063 15.5625C34.3735 15.252 34.8775 15.252 35.188 15.5625Z" fill="#5C76B2"/>
</g>
<g clip-path="url(#clip23)">
<path d="M35.188 21.5625L35.7505 22.125L37.438 20.4375C37.7485 20.127 38.2525 20.127 38.563 20.4375C38.8735 20.748 38.8735 21.252 38.563 21.5625L36.313 23.8125C36.0025 24.123 35.4985 24.123 35.188 23.8125L34.063 22.6875C33.7525 22.377 33.7525 21.873 34.063 21.5625C34.3735 21.252 34.8775 21.252 35.188 21.5625Z" fill="#5C76B2"/>
</g>
</g>
</g>
<defs>
<clipPath id="clip0">
<rect width="48" height="48" fill="white" transform="translate(0.5)"/>
</clipPath>
<clipPath id="clip1">
<rect width="45" height="45" fill="white" transform="translate(2 1.5)"/>
</clipPath>
<clipPath id="clip2">
<rect width="42" height="4.5" fill="white" transform="translate(5 36)"/>
</clipPath>
<clipPath id="clip3">
<rect width="39" height="4.5" fill="white" transform="translate(5 36)"/>
</clipPath>
<clipPath id="clip4">
<rect width="19.5" height="3" fill="white" transform="translate(11 15)"/>
</clipPath>
<clipPath id="clip5">
<rect width="19.5" height="3" fill="white" transform="translate(11 21)"/>
</clipPath>
<clipPath id="clip6">
<rect width="19.5" height="3" fill="white" transform="translate(11 27)"/>
</clipPath>
<clipPath id="clip7">
<rect width="3" height="3" fill="white" transform="translate(28.625 40.5)"/>
</clipPath>
<clipPath id="clip8">
<rect width="7.125" height="3" fill="white" transform="translate(21.5 40.5)"/>
</clipPath>
<clipPath id="clip9">
<rect width="24.75" height="3" fill="white" transform="translate(12.875 43.5)"/>
</clipPath>
<clipPath id="clip10">
<rect width="9" height="3" fill="white" transform="translate(28.625 43.5)"/>
</clipPath>
<clipPath id="clip11">
<rect width="20.25" height="18" fill="white" transform="translate(2 1.5)"/>
</clipPath>
<clipPath id="clip12">
<rect width="18" height="18" fill="white" transform="translate(2 1.5)"/>
</clipPath>
<clipPath id="clip13">
<rect width="15" height="15" fill="white" transform="translate(3.5 3)"/>
</clipPath>
<clipPath id="clip14">
<rect width="0.75" height="6.75" fill="white" transform="translate(10.625 4.125)"/>
</clipPath>
<clipPath id="clip15">
<rect width="3.93113" height="3.93169" fill="white" transform="translate(7.44336 10.1255)"/>
</clipPath>
<clipPath id="clip16">
<rect width="3" height="3" fill="white" transform="translate(9.5 9)"/>
</clipPath>
<clipPath id="clip17">
<rect width="1.5" height="1.5" fill="white" transform="translate(10.25 9.75)"/>
</clipPath>
<clipPath id="clip18">
<rect width="1.5" height="0.75" fill="white" transform="translate(4.625 10.125)"/>
</clipPath>
<clipPath id="clip19">
<rect width="0.75" height="1.5" fill="white" transform="translate(10.625 15.375)"/>
</clipPath>
<clipPath id="clip20">
<rect width="1.5" height="0.75" fill="white" transform="translate(15.875 10.125)"/>
</clipPath>
<clipPath id="clip21">
<rect width="3" height="3" fill="white" transform="translate(34.25 27)"/>
</clipPath>
<clipPath id="clip22">
<rect width="4.96576" height="3.84075" fill="white" transform="translate(33.8301 14.2046)"/>
</clipPath>
<clipPath id="clip23">
<rect width="4.96576" height="3.84076" fill="white" transform="translate(33.8301 20.2046)"/>
</clipPath>
</defs>
</svg>
